<!-- icon666.com - MILLIONS vector ICONS FREE --><svg id="Flat" viewBox="0 0 64 64" xmlns="http://www.w3.org/2000/svg" xmlns:xlink="http://www.w3.org/1999/xlink"><linearGradient id="linear-gradient" gradientUnits="userSpaceOnUse" x1="4" x2="60" y1="32" y2="32"><stop offset="0" stop-color="#7f00ff"></stop><stop offset="1" stop-color="#e100ff"></stop></linearGradient><path d="m29 30.5v12h6v-12zm0 0v12h6v-12zm-25-10.5v30a3.00883 3.00883 0 0 0 3 3h50a3.00883 3.00883 0 0 0 3-3v-30zm19 23.5a1 1 0 0 1 -2 0v-6h-7a1.003 1.003 0 0 1 -1-1v-7a1 1 0 0 1 2 0v6h6v-6a1 1 0 0 1 2 0zm14-1a2.00591 2.00591 0 0 1 -2 2h-6a2.00591 2.00591 0 0 1 -2-2v-12a2.00587 2.00587 0 0 1 2-2h6a2.00587 2.00587 0 0 1 2 2zm14 1a1 1 0 0 1 -2 0v-6h-7a1.003 1.003 0 0 1 -1-1v-7a1 1 0 0 1 2 0v6h6v-6a1 1 0 0 1 2 0zm-22-1h6v-12h-6zm28-31.5h-50a3.00879 3.00879 0 0 0 -3 3v4h56v-4a3.00879 3.00879 0 0 0 -3-3zm-48 4.5a1.00016 1.00016 0 0 1 0-2 1.00016 1.00016 0 0 1 0 2zm4 0a1.00016 1.00016 0 0 1 0-2 1.00016 1.00016 0 0 1 0 2zm4 0a1.00016 1.00016 0 0 1 0-2 1.00016 1.00016 0 0 1 0 2z" fill="url(#linear-gradient)"></path></svg>